<svg width="1024" height="1024" viewBox="0 0 1024 1024" fill="none" xmlns="http://www.w3.org/2000/svg">
<mask id="mask0" mask-type="alpha" maskUnits="userSpaceOnUse" x="97" y="97" width="830" height="830">
<path d="M97 272.078C97 175.385 175.385 97 272.078 97H751.922C848.615 97 927 175.385 927 272.078V751.922C927 848.615 848.615 927 751.922 927H272.078C175.385 927 97 848.615 97 751.922V272.078Z" fill="#484C56"/>
</mask>
<g mask="url(#mask0)">
<rect x="97" y="97" width="830" height="830" fill="#FDFDFD"/>
<g filter="url(#filter0_d)">
<path d="M563.258 241.017C568.775 252.669 568.766 266.183 563.236 277.829L314.367 801.855C307.252 816.837 292.148 826.385 275.562 826.385H251.843C220.31 826.385 199.523 793.544 213.016 765.043L473.354 215.145C488.868 182.376 535.495 182.376 551.009 215.145L563.258 241.017Z" fill="#2F80ED"/>
<path d="M587.106 656.351C587.106 694.527 556.159 725.474 517.983 725.474C479.807 725.474 448.859 694.527 448.859 656.351C448.859 618.175 479.807 587.228 517.983 587.228C556.159 587.228 587.106 618.175 587.106 656.351Z" fill="#2F80ED"/>
<path d="M587.106 656.351C587.106 694.527 556.159 725.474 517.983 725.474C479.807 725.474 448.859 694.527 448.859 656.351C448.859 618.175 479.807 587.228 517.983 587.228C556.159 587.228 587.106 618.175 587.106 656.351Z" fill="url(#paint0_linear)" fill-opacity="0.1"/>
<path d="M749.378 826.399C732.792 826.399 717.688 816.852 710.573 801.87L538.384 439.304C532.854 427.658 532.845 414.145 538.362 402.492L550.611 376.62C566.125 343.851 612.752 343.851 628.266 376.62L812.164 765.058C825.657 793.559 804.87 826.399 773.337 826.399H749.378Z" fill="#2F80ED"/>
<path d="M749.378 826.399C732.792 826.399 717.688 816.852 710.573 801.87L538.384 439.304C532.854 427.658 532.845 414.145 538.362 402.492L550.611 376.62C566.125 343.851 612.752 343.851 628.266 376.62L812.164 765.058C825.657 793.559 804.87 826.399 773.337 826.399H749.378Z" fill="url(#paint1_linear)" fill-opacity="0.1"/>
</g>
</g>
<defs>
<filter id="filter0_d" x="196.832" y="182.568" width="631.516" height="659.832" filterUnits="userSpaceOnUse" color-interpolation-filters="sRGB">
<feFlood flood-opacity="0" result="BackgroundImageFix"/>
<feColorMatrix in="SourceAlpha" type="matrix" values="0 0 0 0 0 0 0 0 0 0 0 0 0 0 0 0 0 0 127 0" result="hardAlpha"/>
<feOffset dy="4"/>
<feGaussianBlur stdDeviation="6"/>
<feColorMatrix type="matrix" values="0 0 0 0 0 0 0 0 0 0 0 0 0 0 0 0 0 0 0.25 0"/>
<feBlend mode="normal" in2="BackgroundImageFix" result="effect1_dropShadow"/>
<feBlend mode="normal" in="SourceGraphic" in2="effect1_dropShadow" result="shape"/>
</filter>
<linearGradient id="paint0_linear" x1="517.983" y1="587.228" x2="517.983" y2="725.474" gradientUnits="userSpaceOnUse">
<stop stop-color="white"/>
<stop offset="1" stop-color="#F2F2F2"/>
</linearGradient>
<linearGradient id="paint1_linear" x1="675.289" y1="352.043" x2="675.289" y2="826.399" gradientUnits="userSpaceOnUse">
<stop stop-color="#333333"/>
<stop offset="1" stop-color="#4F4F4F"/>
</linearGradient>
</defs>
</svg>
