<svg width="512" height="512" viewBox="0 0 512 512" fill="none" xmlns="http://www.w3.org/2000/svg">
<mask id="mask0" mask-type="alpha" maskUnits="userSpaceOnUse" x="0" y="0" width="512" height="512">
<path d="M0 108C0 48.3532 48.3532 0 108 0H404C463.647 0 512 48.3532 512 108V404C512 463.647 463.647 512 404 512H108C48.3532 512 0 463.647 0 404V108Z" fill="#484C56"/>
</mask>
<g mask="url(#mask0)">
<rect width="512" height="512" fill="#FDFDFD"/>
<g filter="url(#filter0_d)">
<path d="M287.618 88.8394C291.021 96.0272 291.016 104.363 287.605 111.547L134.086 434.802C129.696 444.044 120.379 449.933 110.148 449.933H95.5165C76.0649 449.933 63.2418 429.675 71.5651 412.094L232.16 72.8794C241.73 52.6652 270.492 52.6652 280.062 72.8794L287.618 88.8394Z" fill="#2F80ED"/>
<path d="M302.331 345.045C302.331 368.595 283.24 387.685 259.691 387.685C236.141 387.685 217.051 368.595 217.051 345.045C217.051 321.496 236.141 302.405 259.691 302.405C283.24 302.405 302.331 321.496 302.331 345.045Z" fill="#2F80ED"/>
<path d="M302.331 345.045C302.331 368.595 283.24 387.685 259.691 387.685C236.141 387.685 217.051 368.595 217.051 345.045C217.051 321.496 236.141 302.405 259.691 302.405C283.24 302.405 302.331 321.496 302.331 345.045Z" fill="url(#paint0_linear)" fill-opacity="0.1"/>
<path d="M402.432 449.943C392.201 449.943 382.884 444.053 378.495 434.811L272.277 211.156C268.866 203.972 268.86 195.636 272.263 188.448L279.819 172.488C289.389 152.274 318.152 152.274 327.722 172.488L441.163 412.103C449.487 429.684 436.663 449.943 417.212 449.943H402.432Z" fill="#2F80ED"/>
<path d="M402.432 449.943C392.201 449.943 382.884 444.053 378.495 434.811L272.277 211.156C268.866 203.972 268.86 195.636 272.263 188.448L279.819 172.488C289.389 152.274 318.152 152.274 327.722 172.488L441.163 412.103C449.487 429.684 436.663 449.943 417.212 449.943H402.432Z" fill="url(#paint1_linear)" fill-opacity="0.1"/>
</g>
</g>
<defs>
<filter id="filter0_d" x="56.9844" y="49.7188" width="398.76" height="416.224" filterUnits="userSpaceOnUse" color-interpolation-filters="sRGB">
<feFlood flood-opacity="0" result="BackgroundImageFix"/>
<feColorMatrix in="SourceAlpha" type="matrix" values="0 0 0 0 0 0 0 0 0 0 0 0 0 0 0 0 0 0 127 0"/>
<feOffset dy="4"/>
<feGaussianBlur stdDeviation="6"/>
<feColorMatrix type="matrix" values="0 0 0 0 0 0 0 0 0 0 0 0 0 0 0 0 0 0 0.25 0"/>
<feBlend mode="normal" in2="BackgroundImageFix" result="effect1_dropShadow"/>
<feBlend mode="normal" in="SourceGraphic" in2="effect1_dropShadow" result="shape"/>
</filter>
<linearGradient id="paint0_linear" x1="259.691" y1="302.405" x2="259.691" y2="387.685" gradientUnits="userSpaceOnUse">
<stop stop-color="white"/>
<stop offset="1" stop-color="#F2F2F2"/>
</linearGradient>
<linearGradient id="paint1_linear" x1="356.729" y1="157.328" x2="356.729" y2="449.943" gradientUnits="userSpaceOnUse">
<stop stop-color="#333333"/>
<stop offset="1" stop-color="#4F4F4F"/>
</linearGradient>
</defs>
</svg>
